<svg xmlns="http://www.w3.org/2000/svg" viewBox="0 0 160 210" width="160" height="210">
  <path d="M80,0 L158,30 L158,115 Q155,178 80,210 Q5,178 2,115 L2,30 Z" fill="#1C1C2E"/>
  <path d="M80,8 L150,35 L150,116 Q147,172 80,200 Q13,172 10,116 L10,35 Z" fill="none" stroke="#E8A400" stroke-width="2.5"/>
  <path d="M80,18 L142,40 L142,117 Q139,165 80,190 Q21,165 18,117 L18,40 Z" fill="none" stroke="#E8A400" stroke-width="0.8" opacity="0.4"/>
  <ellipse cx="80" cy="108" rx="46" ry="34" fill="white"/>
  <ellipse cx="80" cy="108" rx="46" ry="34" fill="none" stroke="#E8A400" stroke-width="1.5"/>
  <ellipse cx="80" cy="108" rx="26" ry="26" fill="#1C1C2E"/>
  <ellipse cx="80" cy="108" rx="26" ry="26" fill="none" stroke="#E8A400" stroke-width="2"/>
  <circle cx="80" cy="108" r="13" fill="#E8A400"/>
  <circle cx="80" cy="108" r="6" fill="#1C1C2E"/>
  <circle cx="85" cy="103" r="2.5" fill="white" opacity="0.7"/>
  <line x1="68" y1="98" x2="92" y2="118" stroke="#E8A400" stroke-width="4" stroke-linecap="round"/>
  <line x1="92" y1="98" x2="68" y2="118" stroke="#E8A400" stroke-width="4" stroke-linecap="round"/>
  <circle cx="34" cy="56" r="3" fill="#E8A400" opacity="0.6"/>
  <circle cx="126" cy="56" r="3" fill="#E8A400" opacity="0.6"/>
</svg>
